<?xml version="1.0" encoding="UTF-8" ?>
<svg version="1.1" width="128" height="128" xmlns="http://www.w3.org/2000/svg" shape-rendering="crispEdges">
<rect x="73" y="4" width="4" height="12" fill="#686868" />
<rect x="72" y="5" width="1" height="13" fill="#686868" />
<rect x="77" y="5" width="1" height="10" fill="#686868" />
<rect x="71" y="6" width="1" height="13" fill="#686868" />
<rect x="78" y="6" width="2" height="8" fill="#686868" />
<rect x="69" y="7" width="2" height="12" fill="#686868" />
<rect x="80" y="7" width="1" height="6" fill="#686868" />
<rect x="68" y="8" width="1" height="13" fill="#686868" />
<rect x="81" y="8" width="1" height="3" fill="#686868" />
<rect x="66" y="9" width="2" height="12" fill="#686868" />
<rect x="65" y="10" width="1" height="12" fill="#686868" />
<rect x="63" y="11" width="2" height="12" fill="#686868" />
<rect x="62" y="12" width="1" height="12" fill="#686868" />
<rect x="60" y="13" width="2" height="12" fill="#686868" />
<rect x="58" y="14" width="2" height="12" fill="#686868" />
<rect x="78" y="14" width="1" height="1" fill="#686868" />
<rect x="79" y="14" width="2" height="9" fill="#404040" />
<rect x="57" y="15" width="1" height="12" fill="#686868" />
<rect x="77" y="15" width="2" height="8" fill="#404040" />
<rect x="81" y="15" width="1" height="9" fill="#404040" />
<rect x="40" y="16" width="10" height="4" fill="#686868" />
<rect x="55" y="16" width="2" height="12" fill="#686868" />
<rect x="73" y="16" width="2" height="1" fill="#686868" />
<rect x="75" y="16" width="2" height="8" fill="#404040" />
<rect x="82" y="16" width="1" height="9" fill="#404040" />
<rect x="38" y="17" width="2" height="5" fill="#686868" />
<rect x="50" y="17" width="1" height="14" fill="#686868" />
<rect x="54" y="17" width="1" height="12" fill="#686868" />
<rect x="73" y="17" width="1" height="1" fill="#686868" />
<rect x="74" y="17" width="1" height="9" fill="#404040" />
<rect x="83" y="17" width="1" height="9" fill="#404040" />
<rect x="37" y="18" width="1" height="6" fill="#686868" />
<rect x="51" y="18" width="3" height="11" fill="#686868" />
<rect x="72" y="18" width="2" height="9" fill="#404040" />
<rect x="36" y="19" width="1" height="94" fill="#686868" />
<rect x="69" y="19" width="1" height="1" fill="#686868" />
<rect x="70" y="19" width="2" height="13" fill="#404040" />
<rect x="84" y="19" width="2" height="8" fill="#404040" />
<rect x="35" y="20" width="1" height="93" fill="#686868" />
<rect x="40" y="20" width="1" height="1" fill="#686868" />
<rect x="45" y="20" width="5" height="12" fill="#686868" />
<rect x="69" y="20" width="1" height="3" fill="#CBCBCB" />
<rect x="86" y="20" width="1" height="16" fill="#404040" />
<rect x="66" y="21" width="1" height="1" fill="#686868" />
<rect x="67" y="21" width="2" height="3" fill="#CBCBCB" />
<rect x="87" y="21" width="1" height="15" fill="#404040" />
<rect x="34" y="22" width="1" height="90" fill="#686868" />
<rect x="38" y="22" width="1" height="1" fill="#686868" />
<rect x="44" y="22" width="1" height="13" fill="#686868" />
<rect x="65" y="22" width="2" height="3" fill="#CBCBCB" />
<rect x="88" y="22" width="1" height="14" fill="#404040" />
<rect x="43" y="23" width="1" height="12" fill="#686868" />
<rect x="63" y="23" width="2" height="2" fill="#CBCBCB" />
<rect x="69" y="23" width="1" height="9" fill="#404040" />
<rect x="77" y="23" width="4" height="12" fill="#CBCBCB" />
<rect x="89" y="23" width="1" height="13" fill="#404040" />
<rect x="33" y="24" width="1" height="6" fill="#686868" />
<rect x="42" y="24" width="1" height="12" fill="#686868" />
<rect x="62" y="24" width="1" height="7" fill="#404040" />
<rect x="67" y="24" width="1" height="1" fill="#CBCBCB" />
<rect x="68" y="24" width="1" height="7" fill="#404040" />
<rect x="75" y="24" width="1" height="1" fill="#404040" />
<rect x="76" y="24" width="1" height="11" fill="#CBCBCB" />
<rect x="81" y="24" width="1" height="11" fill="#CBCBCB" />
<rect x="90" y="24" width="1" height="13" fill="#404040" />
<rect x="40" y="25" width="2" height="27" fill="#686868" />
<rect x="60" y="25" width="2" height="6" fill="#404040" />
<rect x="63" y="25" width="5" height="6" fill="#404040" />
<rect x="75" y="25" width="1" height="9" fill="#CBCBCB" />
<rect x="82" y="25" width="1" height="10" fill="#CBCBCB" />
<rect x="39" y="26" width="1" height="27" fill="#686868" />
<rect x="58" y="26" width="2" height="5" fill="#404040" />
<rect x="74" y="26" width="1" height="7" fill="#CBCBCB" />
<rect x="83" y="26" width="1" height="8" fill="#CBCBCB" />
<rect x="91" y="26" width="1" height="10" fill="#404040" />
<rect x="57" y="27" width="1" height="6" fill="#404040" />
<rect x="72" y="27" width="1" height="7" fill="#404040" />
<rect x="73" y="27" width="1" height="5" fill="#CBCBCB" />
<rect x="84" y="27" width="1" height="6" fill="#CBCBCB" />
<rect x="85" y="27" width="1" height="10" fill="#404040" />
<rect x="37" y="28" width="2" height="85" fill="#686868" />
<rect x="55" y="28" width="2" height="6" fill="#404040" />
<rect x="92" y="28" width="3" height="4" fill="#404040" />
<rect x="51" y="29" width="2" height="1" fill="#686868" />
<rect x="53" y="29" width="2" height="8" fill="#404040" />
<rect x="95" y="29" width="3" height="5" fill="#404040" />
<rect x="51" y="30" width="1" height="1" fill="#686868" />
<rect x="52" y="30" width="1" height="7" fill="#404040" />
<rect x="98" y="30" width="1" height="10" fill="#404040" />
<rect x="33" y="31" width="1" height="77" fill="#686868" />
<rect x="50" y="31" width="2" height="6" fill="#404040" />
<rect x="58" y="31" width="1" height="1" fill="#404040" />
<rect x="59" y="31" width="10" height="6" fill="#CBCBCB" />
<rect x="99" y="31" width="2" height="8" fill="#404040" />
<rect x="31" y="32" width="2" height="62" fill="#686868" />
<rect x="45" y="32" width="3" height="1" fill="#686868" />
<rect x="48" y="32" width="2" height="5" fill="#404040" />
<rect x="58" y="32" width="1" height="5" fill="#CBCBCB" />
<rect x="69" y="32" width="2" height="5" fill="#CBCBCB" />
<rect x="71" y="32" width="1" height="1" fill="#404040" />
<rect x="73" y="32" width="1" height="5" fill="#404040" />
<rect x="92" y="32" width="2" height="4" fill="#CBCBCB" />
<rect x="94" y="32" width="1" height="1" fill="#404040" />
<rect x="101" y="32" width="1" height="6" fill="#404040" />
<rect x="29" y="33" width="2" height="47" fill="#686868" />
<rect x="45" y="33" width="2" height="1" fill="#686868" />
<rect x="47" y="33" width="1" height="4" fill="#404040" />
<rect x="57" y="33" width="1" height="4" fill="#CBCBCB" />
<rect x="71" y="33" width="1" height="4" fill="#CBCBCB" />
<rect x="74" y="33" width="1" height="4" fill="#404040" />
<rect x="84" y="33" width="1" height="4" fill="#404040" />
<rect x="94" y="33" width="1" height="4" fill="#CBCBCB" />
<rect x="102" y="33" width="1" height="6" fill="#404040" />
<rect x="28" y="34" width="1" height="39" fill="#686868" />
<rect x="45" y="34" width="2" height="3" fill="#404040" />
<rect x="55" y="34" width="1" height="3" fill="#404040" />
<rect x="56" y="34" width="1" height="3" fill="#CBCBCB" />
<rect x="72" y="34" width="1" height="3" fill="#CBCBCB" />
<rect x="75" y="34" width="1" height="3" fill="#404040" />
<rect x="83" y="34" width="1" height="3" fill="#404040" />
<rect x="95" y="34" width="2" height="4" fill="#CBCBCB" />
<rect x="97" y="34" width="1" height="1" fill="#404040" />
<rect x="103" y="34" width="1" height="6" fill="#404040" />
<rect x="26" y="35" width="2" height="24" fill="#686868" />
<rect x="43" y="35" width="2" height="2" fill="#404040" />
<rect x="76" y="35" width="7" height="2" fill="#404040" />
<rect x="97" y="35" width="1" height="2" fill="#CBCBCB" />
<rect x="104" y="35" width="1" height="7" fill="#404040" />
<rect x="24" y="36" width="2" height="11" fill="#686868" />
<rect x="42" y="36" width="1" height="1" fill="#404040" />
<rect x="86" y="36" width="4" height="1" fill="#CBCBCB" />
<rect x="91" y="36" width="3" height="31" fill="#686868" />
<rect x="105" y="36" width="1" height="7" fill="#404040" />
<rect x="23" y="37" width="1" height="10" fill="#686868" />
<rect x="42" y="37" width="49" height="13" fill="#686868" />
<rect x="94" y="37" width="1" height="12" fill="#686868" />
<rect x="97" y="37" width="1" height="3" fill="#404040" />
<rect x="106" y="37" width="1" height="8" fill="#404040" />
<rect x="21" y="38" width="2" height="10" fill="#686868" />
<rect x="95" y="38" width="1" height="1" fill="#CBCBCB" />
<rect x="96" y="38" width="1" height="3" fill="#404040" />
<rect x="101" y="38" width="1" height="11" fill="#CBCBCB" />
<rect x="19" y="39" width="2" height="10" fill="#686868" />
<rect x="95" y="39" width="1" height="2" fill="#404040" />
<rect x="99" y="39" width="2" height="10" fill="#CBCBCB" />
<rect x="102" y="39" width="1" height="9" fill="#CBCBCB" />
<rect x="107" y="39" width="1" height="9" fill="#404040" />
<rect x="18" y="40" width="1" height="10" fill="#686868" />
<rect x="97" y="40" width="2" height="9" fill="#CBCBCB" />
<rect x="103" y="40" width="1" height="8" fill="#CBCBCB" />
<rect x="108" y="40" width="1" height="10" fill="#404040" />
<rect x="16" y="41" width="2" height="10" fill="#686868" />
<rect x="95" y="41" width="2" height="8" fill="#CBCBCB" />
<rect x="14" y="42" width="2" height="10" fill="#686868" />
<rect x="104" y="42" width="1" height="5" fill="#CBCBCB" />
<rect x="109" y="42" width="1" height="9" fill="#404040" />
<rect x="13" y="43" width="1" height="9" fill="#686868" />
<rect x="105" y="43" width="1" height="4" fill="#CBCBCB" />
<rect x="12" y="44" width="1" height="7" fill="#686868" />
<rect x="110" y="44" width="1" height="10" fill="#404040" />
<rect x="106" y="45" width="1" height="1" fill="#CBCBCB" />
<rect x="106" y="46" width="1" height="3" fill="#404040" />
<rect x="111" y="46" width="1" height="12" fill="#404040" />
<rect x="25" y="47" width="1" height="5" fill="#686868" />
<rect x="104" y="47" width="2" height="3" fill="#404040" />
<rect x="102" y="48" width="2" height="2" fill="#404040" />
<rect x="107" y="48" width="1" height="9" fill="#CBCBCB" />
<rect x="112" y="48" width="1" height="10" fill="#404040" />
<rect x="19" y="49" width="1" height="1" fill="#686868" />
<rect x="94" y="49" width="2" height="8" fill="#404040" />
<rect x="96" y="49" width="2" height="1" fill="#CBCBCB" />
<rect x="98" y="49" width="4" height="2" fill="#404040" />
<rect x="106" y="49" width="1" height="9" fill="#CBCBCB" />
<rect x="42" y="50" width="31" height="1" fill="#686868" />
<rect x="73" y="50" width="3" height="44" fill="#5D5D5D" />
<rect x="76" y="50" width="15" height="1" fill="#686868" />
<rect x="96" y="50" width="2" height="2" fill="#404040" />
<rect x="102" y="50" width="1" height="1" fill="#404040" />
<rect x="103" y="50" width="3" height="8" fill="#CBCBCB" />
<rect x="108" y="50" width="1" height="7" fill="#CBCBCB" />
<rect x="42" y="51" width="15" height="1" fill="#686868" />
<rect x="57" y="51" width="3" height="44" fill="#5D5D5D" />
<rect x="60" y="51" width="12" height="1" fill="#686868" />
<rect x="72" y="51" width="1" height="44" fill="#5D5D5D" />
<rect x="76" y="51" width="1" height="23" fill="#5D5D5D" />
<rect x="77" y="51" width="14" height="61" fill="#686868" />
<rect x="98" y="51" width="2" height="1" fill="#404040" />
<rect x="100" y="51" width="3" height="8" fill="#CBCBCB" />
<rect x="109" y="51" width="1" height="5" fill="#CBCBCB" />
<rect x="113" y="51" width="1" height="7" fill="#404040" />
<rect x="40" y="52" width="3" height="16" fill="#5D5D5D" />
<rect x="43" y="52" width="13" height="1" fill="#686868" />
<rect x="56" y="52" width="1" height="23" fill="#5D5D5D" />
<rect x="60" y="52" width="1" height="44" fill="#5D5D5D" />
<rect x="61" y="52" width="11" height="20" fill="#686868" />
<rect x="96" y="52" width="1" height="1" fill="#404040" />
<rect x="97" y="52" width="3" height="5" fill="#CBCBCB" />
<rect x="39" y="53" width="1" height="7" fill="#5D5D5D" />
<rect x="43" y="53" width="1" height="39" fill="#5D5D5D" />
<rect x="44" y="53" width="12" height="5" fill="#686868" />
<rect x="96" y="53" width="1" height="1" fill="#CBCBCB" />
<rect x="96" y="54" width="1" height="10" fill="#404040" />
<rect x="110" y="54" width="1" height="1" fill="#CBCBCB" />
<rect x="110" y="55" width="1" height="4" fill="#404040" />
<rect x="109" y="56" width="1" height="3" fill="#404040" />
<rect x="95" y="57" width="1" height="5" fill="#404040" />
<rect x="97" y="57" width="1" height="7" fill="#404040" />
<rect x="98" y="57" width="2" height="2" fill="#CBCBCB" />
<rect x="107" y="57" width="2" height="3" fill="#404040" />
<rect x="44" y="58" width="1" height="38" fill="#5D5D5D" />
<rect x="45" y="58" width="11" height="8" fill="#686868" />
<rect x="103" y="58" width="1" height="1" fill="#CBCBCB" />
<rect x="104" y="58" width="3" height="3" fill="#404040" />
<rect x="27" y="59" width="1" height="7" fill="#686868" />
<rect x="98" y="59" width="1" height="5" fill="#404040" />
<rect x="99" y="59" width="2" height="1" fill="#CBCBCB" />
<rect x="101" y="59" width="3" height="3" fill="#404040" />
<rect x="39" y="60" width="1" height="53" fill="#686868" />
<rect x="99" y="60" width="2" height="3" fill="#404040" />
<rect x="104" y="61" width="1" height="1" fill="#404040" />
<rect x="101" y="62" width="2" height="1" fill="#404040" />
<rect x="45" y="66" width="1" height="31" fill="#5D5D5D" />
<rect x="46" y="66" width="10" height="8" fill="#686868" />
<rect x="91" y="67" width="2" height="18" fill="#686868" />
<rect x="40" y="68" width="1" height="45" fill="#686868" />
<rect x="41" y="68" width="2" height="8" fill="#5D5D5D" />
<rect x="61" y="72" width="10" height="1" fill="#686868" />
<rect x="71" y="72" width="1" height="22" fill="#5D5D5D" />
<rect x="61" y="73" width="1" height="22" fill="#5D5D5D" />
<rect x="62" y="73" width="9" height="40" fill="#686868" />
<rect x="46" y="74" width="1" height="23" fill="#5D5D5D" />
<rect x="47" y="74" width="9" height="8" fill="#686868" />
<rect x="76" y="74" width="1" height="39" fill="#686868" />
<rect x="56" y="75" width="1" height="38" fill="#686868" />
<rect x="41" y="76" width="1" height="37" fill="#686868" />
<rect x="42" y="76" width="1" height="8" fill="#5D5D5D" />
<rect x="30" y="80" width="1" height="7" fill="#686868" />
<rect x="47" y="82" width="1" height="15" fill="#5D5D5D" />
<rect x="48" y="82" width="8" height="8" fill="#686868" />
<rect x="42" y="84" width="1" height="29" fill="#686868" />
<rect x="91" y="85" width="1" height="18" fill="#686868" />
<rect x="48" y="90" width="1" height="6" fill="#5D5D5D" />
<rect x="49" y="90" width="7" height="23" fill="#686868" />
<rect x="43" y="92" width="1" height="21" fill="#686868" />
<rect x="32" y="94" width="1" height="7" fill="#686868" />
<rect x="71" y="94" width="1" height="19" fill="#686868" />
<rect x="73" y="94" width="2" height="1" fill="#5D5D5D" />
<rect x="75" y="94" width="1" height="19" fill="#686868" />
<rect x="57" y="95" width="1" height="18" fill="#686868" />
<rect x="58" y="95" width="2" height="1" fill="#5D5D5D" />
<rect x="61" y="95" width="1" height="18" fill="#686868" />
<rect x="72" y="95" width="3" height="18" fill="#686868" />
<rect x="44" y="96" width="1" height="17" fill="#686868" />
<rect x="48" y="96" width="1" height="17" fill="#686868" />
<rect x="58" y="96" width="3" height="17" fill="#686868" />
<rect x="45" y="97" width="3" height="16" fill="#686868" />
<rect x="77" y="112" width="13" height="1" fill="#686868" />
</svg>